<svg xmlns="http://www.w3.org/2000/svg" viewBox="0 0 400 400">
  <defs>
    <linearGradient id="ballGrad" x1="0%" y1="0%" x2="100%" y2="100%">
      <stop offset="0%" style="stop-color:#f5f5f5"/>
      <stop offset="100%" style="stop-color:#d4d4d4"/>
    </linearGradient>
    <linearGradient id="goldGrad" x1="0%" y1="0%" x2="100%" y2="100%">
      <stop offset="0%" style="stop-color:#ffd86a"/>
      <stop offset="100%" style="stop-color:#a67c1a"/>
    </linearGradient>
    <linearGradient id="ringGrad" x1="0%" y1="0%" x2="100%" y2="100%">
      <stop offset="0%" style="stop-color:#ffd86a"/>
      <stop offset="50%" style="stop-color:#d4a843"/>
      <stop offset="100%" style="stop-color:#a67c1a"/>
    </linearGradient>
  </defs>
  <ellipse cx="200" cy="375" rx="120" ry="15" fill="rgba(0,0,0,0.1)"/>
  <circle cx="200" cy="190" r="160" fill="url(#ballGrad)" stroke="#bbb" stroke-width="1"/>
  <polygon points="200,140 225,160 218,190 182,190 175,160" fill="#10251f" stroke="#333" stroke-width="1.5"/>
  <polygon points="145,130 168,115 185,135 175,160 150,155" fill="#10251f" stroke="#333" stroke-width="1.5"/>
  <polygon points="255,130 232,115 215,135 225,160 250,155" fill="#10251f" stroke="#333" stroke-width="1.5"/>
  <polygon points="140,220 165,210 175,235 160,255 135,245" fill="#10251f" stroke="#333" stroke-width="1.5"/>
  <polygon points="260,220 235,210 225,235 240,255 265,245" fill="#10251f" stroke="#333" stroke-width="1.5"/>
  <polygon points="190,250 210,250 215,270 200,285 185,270" fill="#10251f" stroke="#333" stroke-width="1.5"/>
  <line x1="175" y1="160" x2="145" y2="130" stroke="#10251f" stroke-width="2.5"/>
  <line x1="225" y1="160" x2="255" y2="130" stroke="#10251f" stroke-width="2.5"/>
  <line x1="182" y1="190" x2="140" y2="220" stroke="#10251f" stroke-width="2.5"/>
  <line x1="218" y1="190" x2="260" y2="220" stroke="#10251f" stroke-width="2.5"/>
  <line x1="175" y1="235" x2="185" y2="270" stroke="#10251f" stroke-width="2.5"/>
  <line x1="225" y1="235" x2="215" y2="270" stroke="#10251f" stroke-width="2.5"/>
  <circle cx="200" cy="190" r="170" fill="none" stroke="url(#ringGrad)" stroke-width="6"/>
  <text x="200" y="390" text-anchor="middle" font-family="'Bebas Neue',Arial,sans-serif" font-size="42" font-weight="700" fill="url(#goldGrad)" letter-spacing="4">2026</text>
  <ellipse cx="155" cy="115" rx="55" ry="30" fill="rgba(255,255,255,0.25)" transform="rotate(-30,155,115)"/>
</svg>